<svg xmlns="http://www.w3.org/2000/svg" viewBox="0 0 1200 580">
  <style>
    text {
      font-family: 'Quicksand', 'Nunito', sans-serif;
      font-weight: 700;
      text-anchor: middle;
    }
  </style>

  <!-- Tier 1: anchor terms -->
  <text x="600" y="220" font-size="92" fill="#f0d255">community</text>
  <text x="380" y="320" font-size="68" fill="#825a9b">kinship</text>
  <text x="820" y="320" font-size="60" fill="#d26923">relationships</text>

  <!-- Tier 2: high-resonance terms -->
  <text x="260" y="180" font-size="48" fill="#7d196e" transform="rotate(-40 260 180)">belonging</text>
  <text x="970" y="190" font-size="48" fill="#286e50" transform="rotate(10 970 190)">trust</text>
  <text x="540" y="400" font-size="46" fill="#3255a5">peers</text>
  <text x="780" y="430" font-size="44" fill="#a03c32">together</text>
  <text x="280" y="420" font-size="42" fill="#8296a0">presence</text>

  <!-- Tier 3: supporting terms -->
  <text x="540" y="120" font-size="36" fill="#d26923">reciprocity</text>
  <text x="900" y="100" font-size="34" fill="#825a9b">collective</text>
  <text x="160" y="320" font-size="32" fill="#3255a5" transform="rotate(-90 160 320)">listening</text>
  <text x="1060" y="320" font-size="32" fill="#7d196e" transform="rotate(90 1060 320)">connection</text>
  <text x="180" y="100" font-size="30" fill="#286e50">witness</text>
  <text x="640" y="490" font-size="32" fill="#f0d255">contribution</text>

  <!-- Tier 4: outer terms -->
  <text x="200" y="540" font-size="26" fill="#a03c32">participation</text>
  <text x="900" y="540" font-size="26" fill="#8296a0">co-creation</text>
  <text x="1000" y="450" font-size="26" fill="#f0d255" transform="rotate(-15 1000 450)">conversation</text>
  <text x="430" y="540" font-size="26" fill="#7d196e">visiting</text>
  <text x="1050" y="540" font-size="24" fill="#286e50">discovery</text>
  <text x="1060" y="150" font-size="28" fill="#825a9b" transform="rotate(50 1060 150)">communication</text>
  <text x="690" y="560" font-size="30" fill="#3255a5">curiosity</text>
  <text x="710" y="80" font-size="32" fill="#d26923">empathy</text>
  <text x="1100" y="100" font-size="44" fill="#f0d255">play</text>
  <text x="400" y="470" font-size="28" fill="#a03c32">practice</text>
  <text x="140" y="480" font-size="26" fill="#286e50">negotiation</text>
</svg>
